<svg id="Layer_1" viewBox="0 0 24 24" xmlns="http://www.w3.org/2000/svg" data-name="Layer 1"><path d="m14 19c1.893 0 3.475-.108 4.732-.249-.773 2.328-1.484 3.655-1.523 3.726-.17.312-.494.511-.849.521-.116.003-2.901.067-7.631-1.152s-7.137-2.621-7.237-2.681c-.306-.181-.493-.511-.492-.867 0-.106.026-2.626 1.011-6.446.332-1.287.677-2.356.996-3.245-.001.134-.007.254-.007.392 0 4.126.621 6.703.691 6.983.26 1.031 1.056 1.854 2.078 2.149.308.089 3.156.867 8.231.867zm2.65-9.908c-2.956 1.127-5.969 3.629-8.971 7.412 1.266.225 3.394.496 6.321.496 4.885 0 7.565-.757 7.677-.789.342-.099.605-.372.692-.717.01-.041.113-.469.233-1.203-1.527-2.089-3.572-3.881-5.952-5.2zm6.35-.092c0 .925-.035 1.759-.086 2.509-1.597-1.753-3.541-3.252-5.718-4.394-.244-.128-.529-.15-.787-.061-3.583 1.218-7.174 4.148-10.678 8.689-.044-.077-.078-.16-.1-.248-.026-.103-.63-2.55-.63-6.494 0-4.084.608-6.411.634-6.508.09-.339.352-.605.689-.703.112-.032 2.792-.789 7.677-.789s7.565.757 7.677.789c.342.099.605.372.692.717.026.103.63 2.55.63 6.494zm-12-3.5c0-1.071-.429-1.5-1.5-1.5s-1.5.429-1.5 1.5.429 1.5 1.5 1.5 1.5-.429 1.5-1.5z"/></svg>